<svg width="31" height="31" viewBox="0 0 31 31" fill="none" xmlns="http://www.w3.org/2000/svg">
<path fill-rule="evenodd" clip-rule="evenodd" d="M17.8747 2.86564C18.1371 3.12016 18.1778 3.52741 18.2592 4.3419C18.4145 5.89453 18.4921 6.67084 19.0018 6.91303C19.0325 6.92759 19.0638 6.94058 19.0958 6.95196C19.6275 7.14112 20.2313 6.64708 21.439 5.659C22.0725 5.14067 22.3892 4.88151 22.7547 4.88704C22.7778 4.88739 22.801 4.88854 22.824 4.89049C23.1882 4.92136 23.4776 5.21075 24.0564 5.78955L25.2105 6.94361C25.7893 7.52242 26.0787 7.81182 26.1095 8.17604C26.1115 8.19908 26.1126 8.22219 26.113 8.24532C26.1185 8.6108 25.8594 8.92756 25.341 9.56109C24.3529 10.7688 23.8589 11.3726 24.0481 11.9043C24.0594 11.9362 24.0724 11.9676 24.087 11.9982C24.3291 12.508 25.1055 12.5856 26.6581 12.7409C27.4727 12.8223 27.8799 12.863 28.1345 13.1254C28.1505 13.142 28.1661 13.1591 28.181 13.1768C28.4167 13.4562 28.4167 13.8654 28.4167 14.684V16.3162C28.4167 17.1346 28.4167 17.5438 28.1811 17.8232C28.1661 17.8409 28.1505 17.8581 28.1344 17.8748C27.8799 18.1371 27.4727 18.1778 26.6583 18.2592C25.106 18.4144 24.3298 18.4921 24.0876 19.0016C24.0729 19.0324 24.0599 19.0639 24.0485 19.096C23.8595 19.6276 24.3534 20.2312 25.3412 21.4386C25.8594 22.072 26.1185 22.3886 26.1131 22.754C26.1127 22.7773 26.1116 22.8005 26.1096 22.8237C26.0787 23.1878 25.7893 23.4771 25.2107 24.0557L24.0565 25.21C23.4777 25.7888 23.1883 26.0782 22.8241 26.109C22.801 26.111 22.7779 26.1121 22.7548 26.1125C22.3893 26.118 22.0725 25.8588 21.439 25.3405C20.2314 24.3524 19.6275 23.8584 19.0959 24.0476C19.0639 24.0589 19.0325 24.0719 19.0019 24.0865C18.4922 24.3287 18.4145 25.1051 18.2593 26.6579C18.1778 27.4726 18.137 27.88 17.8746 28.1345C17.8581 28.1506 17.841 28.166 17.8234 28.1809C17.544 28.4167 17.1346 28.4167 16.3159 28.4167H14.684C13.8654 28.4167 13.4562 28.4167 13.1768 28.181C13.1591 28.1661 13.142 28.1505 13.1254 28.1344C12.863 27.8799 12.8223 27.4727 12.7409 26.6582C12.5856 25.1055 12.508 24.3291 11.9982 24.087C11.9676 24.0724 11.9362 24.0594 11.9043 24.0481C11.3726 23.8589 10.7688 24.3529 9.56105 25.3411C8.9275 25.8594 8.61073 26.1186 8.24524 26.1131C8.22212 26.1127 8.19903 26.1116 8.176 26.1096C7.81177 26.0788 7.52236 25.7893 6.94353 25.2105L5.78951 24.0565C5.21069 23.4777 4.92129 23.1883 4.89043 22.824C4.88848 22.801 4.88733 22.7779 4.88698 22.7548C4.88144 22.3893 5.14061 22.0725 5.65896 21.439C6.64706 20.2313 7.14111 19.6275 6.95194 19.0958C6.94057 19.0638 6.92758 19.0325 6.91303 19.0018C6.67083 18.4921 5.89452 18.4145 4.34189 18.2592C3.52741 18.1778 3.12016 18.1371 2.86565 17.8747C2.84954 17.8581 2.83401 17.8409 2.81909 17.8233C2.58337 17.5439 2.58337 17.1346 2.58337 16.3161L2.58337 14.6842C2.58337 13.8655 2.58337 13.4561 2.81917 13.1767C2.83404 13.1591 2.84951 13.142 2.86555 13.1255C3.12009 12.863 3.52741 12.8223 4.34205 12.7408C5.89498 12.5855 6.67145 12.5079 6.91359 11.998C6.92809 11.9675 6.94103 11.9363 6.95237 11.9044C7.14168 11.3727 6.64752 10.7687 5.65919 9.56072C5.14069 8.927 4.88143 8.61013 4.88704 8.24454C4.88739 8.22154 4.88854 8.19856 4.89048 8.17564C4.92127 7.81131 5.21076 7.52183 5.78972 6.94286L6.94359 5.78899L6.94359 5.78899C7.52242 5.21017 7.81183 4.92076 8.17606 4.88991C8.19909 4.88795 8.22218 4.8868 8.2453 4.88645C8.61079 4.88091 8.9276 5.14012 9.56121 5.65853C10.7688 6.64653 11.3726 7.14054 11.9042 6.95151C11.9362 6.94011 11.9677 6.92707 11.9985 6.91245C12.508 6.67021 12.5856 5.89405 12.7409 4.34173C12.8223 3.5274 12.863 3.12024 13.1253 2.86574C13.1419 2.84956 13.1592 2.83398 13.1769 2.81901C13.4563 2.58337 13.8654 2.58337 14.6838 2.58337H16.3161C17.1346 2.58337 17.5439 2.58337 17.8233 2.81909C17.8409 2.83401 17.8581 2.84954 17.8747 2.86564ZM15.5 20.6667C18.3535 20.6667 20.6667 18.3535 20.6667 15.5C20.6667 12.6466 18.3535 10.3334 15.5 10.3334C12.6466 10.3334 10.3334 12.6466 10.3334 15.5C10.3334 18.3535 12.6466 20.6667 15.5 20.6667Z" fill="#FFFEFE"/>
</svg>
